<svg xmlns="http://www.w3.org/2000/svg" data-name="Layer 2" viewBox="0 0 87.5 99.8375" x="0px" y="0px"><defs><style>.cls-1{fill:none;}</style></defs><title>Aux</title><path class="cls-1" d="M856,15.72V13.06a1.85,1.85,0,1,0-3.7,0v2.66H856Z" transform="translate(-846.25 -9.47)"/><path class="cls-1" d="M856.76,60.09v-8a2.62,2.62,0,0,1,2.62-2.62,0.88,0.88,0,0,0,.88-0.87V31.73a0.87,0.87,0,0,0-.87-0.87H848.87a0.87,0.87,0,0,0-.87.87V48.61a0.87,0.87,0,0,0,.87.87,2.62,2.62,0,0,1,2.63,2.62v8a0.87,0.87,0,0,0,.87.87h3.51A0.87,0.87,0,0,0,856.76,60.09Z" transform="translate(-846.25 -9.47)"/><rect class="cls-1" x="6.03" y="8" width="3.7" height="4.22"/><rect class="cls-1" x="77.77" y="62.55" width="3.7" height="3.35"/><rect class="cls-1" x="6.03" y="13.96" width="3.7" height="3.35"/><path class="cls-1" d="M931.13,49.32a2.62,2.62,0,0,1-2.63-2.62v-8a0.87,0.87,0,0,0-.87-0.87h-3.51a0.87,0.87,0,0,0-.87.87v8a2.62,2.62,0,0,1-2.62,2.62,0.88,0.88,0,0,0-.88.87V67.08a0.87,0.87,0,0,0,.87.87h10.52a0.87,0.87,0,0,0,.87-0.87V50.2A0.87,0.87,0,0,0,931.13,49.32Z" transform="translate(-846.25 -9.47)"/><rect class="cls-1" x="77.77" y="67.65" width="3.7" height="4.22"/><path class="cls-1" d="M924,83.08v2.66a1.85,1.85,0,1,0,3.7,0V83.08H924Z" transform="translate(-846.25 -9.47)"/><path d="M931.12,47.58a0.87,0.87,0,0,1-.87-0.87v-8a2.62,2.62,0,0,0-2.62-2.62h-0.88V28.28a18.81,18.81,0,0,0-37.62,0V62.69a17.06,17.06,0,0,1-34.12,0h0.88a2.62,2.62,0,0,0,2.62-2.62v-8a0.88,0.88,0,0,1,.88-0.87A2.62,2.62,0,0,0,862,48.61V31.73a2.62,2.62,0,0,0-2.62-2.62h-1V27.65h-0.7V13.06a3.59,3.59,0,1,0-7.19,0V27.65h-0.7v1.45h-1a2.62,2.62,0,0,0-2.62,2.62V48.61a2.62,2.62,0,0,0,2.63,2.62,0.87,0.87,0,0,1,.87.87v8a2.62,2.62,0,0,0,2.62,2.62h0.88a18.81,18.81,0,0,0,37.62,0V28.28a17.06,17.06,0,0,1,34.13,0v7.82h-0.88a2.62,2.62,0,0,0-2.62,2.62v8a0.88,0.88,0,0,1-.88.87A2.62,2.62,0,0,0,918,50.2V67.08a2.62,2.62,0,0,0,2.62,2.62h1v1.45h0.7V85.74a3.59,3.59,0,1,0,7.19,0V71.15h0.7V69.7h1a2.62,2.62,0,0,0,2.62-2.62V50.2A2.62,2.62,0,0,0,931.12,47.58ZM852.28,23.43H856v3.35h-3.7V23.43Zm3.7-1.75h-3.7V17.47H856v4.22Zm-1.85-10.47A1.85,1.85,0,0,1,856,13.06v2.66h-3.7V13.06A1.85,1.85,0,0,1,854.13,11.22ZM851.5,60.09v-8a2.62,2.62,0,0,0-2.63-2.62,0.87,0.87,0,0,1-.87-0.87V31.73a0.87,0.87,0,0,1,.87-0.87h10.52a0.87,0.87,0,0,1,.87.87V48.61a0.88,0.88,0,0,1-.88.87,2.62,2.62,0,0,0-2.62,2.62v8a0.87,0.87,0,0,1-.87.87h-3.51A0.87,0.87,0,0,1,851.5,60.09Zm76.22,15.28H924V72h3.7v3.35ZM924,77.12h3.7v4.22H924V77.12Zm1.85,10.47A1.85,1.85,0,0,1,924,85.74V83.08h3.7v2.66A1.85,1.85,0,0,1,925.87,87.59ZM932,67.08a0.87,0.87,0,0,1-.87.87H920.61a0.87,0.87,0,0,1-.87-0.87V50.2a0.88,0.88,0,0,1,.88-0.87,2.62,2.62,0,0,0,2.62-2.62v-8a0.87,0.87,0,0,1,.87-0.87h3.51a0.87,0.87,0,0,1,.87.87v8a2.62,2.62,0,0,0,2.63,2.62,0.87,0.87,0,0,1,.87.87V67.08Z" transform="translate(-846.25 -9.47)"/><text x="0" y="94.87" fill="#000000" font-size="5px" font-weight="bold" font-family="'Helvetica Neue', Helvetica, Arial-Unicode, Arial, Sans-serif">Created by Simphiwe Mangole</text><text x="0" y="99.87" fill="#000000" font-size="5px" font-weight="bold" font-family="'Helvetica Neue', Helvetica, Arial-Unicode, Arial, Sans-serif">from the Noun Project</text></svg>