<?xml version="1.0" encoding="utf-8"?>
<!-- Generator: Adobe Illustrator 23.0.4, SVG Export Plug-In . SVG Version: 6.00 Build 0)  -->
<svg version="1.1" id="Layer_1" xmlns="http://www.w3.org/2000/svg" xmlns:xlink="http://www.w3.org/1999/xlink" x="0px" y="0px"
	 viewBox="0 0 500 500" style="enable-background:new 0 0 500 500;" xml:space="preserve">
<style type="text/css">
	.st0{fill:#FFFFFF;}
</style>
<g>
	<g>
		<title>Aux</title>
		<path class="st0" d="M62.1,99.9c-0.1,0-0.2-0.1-0.3-0.2c0,0-0.1,0-0.1-0.1c-0.1-0.1-0.3-0.1-0.4-0.2c-0.3-0.2-0.6-0.3-1-0.4
			c-0.7-0.2-1.3-0.2-2-0.3c0,0-0.1,0-0.1,0c0,0,0,0,0,0h-5.5v-3.9l0-56.2c0-6.8-4.5-13.1-11.2-14.3c-8.6-1.5-16,5.2-16,13.8v56.7
			h-3.9v3.9H17c-5.6-0.7-11,9.5-11,9.5v65.7c0,0,5.4,10.2,11,10.4h0c1.9-0.2,3.4,1.3,4.5,3.2v31.1c-0.7,3.8,3.6,8,6.5,10.4h19.3
			c3.1-2.4,8.1-6.7,9.2-10.5v-31.1c-1.7-1.9-0.2-3.4,1.7-3.4c5.6,0,10-10.1,10-10.1v-65.6C68.2,108.2,65.7,102.5,62.1,99.9z
			 M29.3,33.9c0-3.9,3.5-7.1,7.8-7.2l0,0c4.2,0,7.7,3.1,7.8,7.1c0,0,0,0.1,0,0.1v10.3H29.3V33.9z M29.3,52h15.6v15.6l-0.1,0H29.3V52
			z M29.3,75.3h15.6V87H29.3V75.3z M64.3,173.8c-2.7,1.9-4.2,3.4-6.1,3.4c-5.6,0-9.4,10.2-9.4,10.2v32.3c0,1.9-1.5,3.4-3.4,3.4H32.6
			c-1.8,0-3.2-1.5-3.3-3.3c0,0,0-0.1,0-0.1v-32.3c0,0-6.3-10.2-11.9-10.9h0c-1.9,0.8-3.4-0.8-3.6-2.6v-65.6c0.2-1.9,3.6-5.7,3.6-5.7
			h40.9c0,0,0.1,0.1,0.3,0.4c0,0,0.1,0.1,0.1,0.1c1,1.1,3.5,3.7,5.7,5.2V173.8z"/>
		<g>
			<path class="st0" d="M467.8,247.3h-42.3c-24.9,0-21-55-50.5-55c-27.1,0-25.4,52.8-38.2,76.7c-2.1,3.9-8.1,3.2-9.5-1.1
				c-14.4-44.7-7.9-152.5-47.2-152.5c-41.3,0-31,140.2-47.1,197.2c-1.2,4.2-7.2,4.6-8.9,0.5c-17-40.7-15.1-129.6-47.2-129.6
				c-33.2,0-30.4,74.4-43.4,104.4c-1.7,3.9-7.4,4.1-9.3,0.2c-9.5-19.8-12.5-59.7-48.3-59.7H34c-5.2,0-9.4,4.2-9.4,9.4
				c0,5.1,4.1,9.3,9.2,9.4h17.6c0,0,0.1,0,0.1,0h24.2c29.6,0,19.6,65.7,53.8,65.7c31.8,0,28.3-71.6,42-103.2
				c1.7-3.8,7.2-3.7,8.8,0.2c15.2,38.6,14.9,131.6,49.8,131.6c39.2,0,25.2-148.1,46.1-200.3c1.6-4,7.2-4.2,9-0.3
				c19.4,42.4,9.2,153.3,44.2,153.3c31,0,32.8-51.3,42.1-76.3c1.5-3.9,6.9-4.1,8.8-0.4c9.7,18.9,16,48.6,45.3,48.6h42.1
				c5.2,0,9.4-4.2,9.4-9.4C477.3,251.6,473,247.3,467.8,247.3z"/>
		</g>
	</g>
	<path class="st0" d="M61.8,99.6c-0.2-0.1-0.3-0.2-0.5-0.3c-0.3-0.2-0.6-0.3-1-0.4c-0.1,0-0.2,0-0.4-0.1c-0.4,1.7-0.9,3.1-1.5,3.9
		c0.1,0,0.1,0.1,0.1,0.1c0,0,0,0,0,0c0,0,0.1,0,0.1,0.1h0l3.1,2.3C61.8,103.3,61.8,101.5,61.8,99.6C61.8,99.7,61.8,99.7,61.8,99.6z"
		/>
	<path class="st0" d="M61.8,105.4c0,1.2,0,2.5,0,3.9c0,66.7,0,66.7,0,66.7l3.1-1.6v-66.7L61.8,105.4z"/>
	<rect x="16.9" y="101.4" class="st0" width="41.9" height="3.2"/>
	<polyline class="st0" points="16.9,103 13.8,104.6 13.8,107.7 16.9,104.6 	"/>
	<polyline class="st0" points="58.7,104.6 61.8,106.2 63.4,104.6 60.3,103 58.7,103 57.2,101.5 	"/>
	<rect x="60.3" y="104.6" class="st0" width="4.7" height="72.9"/>
	<path class="st0" d="M437.3,397.2c0.1,0,0.2,0.1,0.3,0.2c0,0,0.1,0,0.1,0.1c0.1,0.1,0.3,0.1,0.4,0.2c0.3,0.2,0.6,0.3,1,0.4
		c0.7,0.2,1.3,0.2,2,0.3c0,0,0.1,0,0.1,0c0,0,0,0,0,0h5.5v3.9l0,56.2c0,6.8,4.5,13.1,11.2,14.3c8.6,1.5,16-5.2,16-13.8v-56.7h3.9
		v-3.9h4.5c5.6,0.7,11-9.5,11-9.5v-65.7c0,0-5.4-10.2-11-10.4h0c-1.9,0.2-3.4-1.3-4.5-3.2v-31.1c0.9-4.7-6-10.1-8.3-11.8H454
		c-2.4,1.7-9.7,7.2-11.1,11.9v31.1c1.7,1.9,0.2,3.4-1.7,3.4c-5.6,0-10,10.1-10,10.1v65.6C431.2,388.9,433.7,394.6,437.3,397.2z
		 M470.1,463.2c0,3.9-3.5,7.1-7.8,7.2l0,0c-4.2,0-7.7-3.1-7.8-7.1c0,0,0-0.1,0-0.1v-10.3h15.6V463.2z M470.1,445.1h-15.6v-15.6
		l0.1,0h15.5V445.1z M470.1,421.7h-15.6v-11.7h15.6V421.7z M435.1,323.3c2.7-1.9,4.2-3.4,6.1-3.4c5.6,0,9.4-10.2,9.4-10.2v-32.3
		c0-1.9,1.5-3.4,3.4-3.4h12.8c1.8,0,3.2,1.5,3.3,3.3c0,0,0,0.1,0,0.1v32.3c0,0,6.3,10.2,11.9,10.9h0c1.9-0.8,3.4,0.8,3.6,2.6v65.6
		c-0.2,1.9-3.6,5.7-3.6,5.7h-40.9c0,0-0.1-0.1-0.3-0.4c0,0-0.1-0.1-0.1-0.1c-1-1.1-3.5-3.7-5.7-5.2V323.3z"/>
	<path class="st0" d="M437.6,397.4c0.2,0.1,0.3,0.2,0.5,0.3c0.3,0.2,0.6,0.3,1,0.4c0.1,0,0.2,0,0.4,0.1c0.4-1.7,0.9-3.1,1.5-3.9
		c-0.1,0-0.1-0.1-0.1-0.1c0,0,0,0,0,0c0,0-0.1,0-0.1-0.1h0l-3.1-2.3C437.6,393.8,437.6,395.6,437.6,397.4
		C437.6,397.4,437.6,397.4,437.6,397.4z"/>
	<path class="st0" d="M437.6,391.7c0-1.2,0-2.5,0-3.9c0-66.7,0-66.7,0-66.7l-3.1,1.6v66.7L437.6,391.7z"/>
	
		<rect x="440.7" y="392.4" transform="matrix(-1 -8.978653e-11 8.978653e-11 -1 923.2393 788.0737)" class="st0" width="41.9" height="3.2"/>
	<polyline class="st0" points="482.5,394 485.6,392.5 485.6,389.4 482.5,392.5 	"/>
	<polyline class="st0" points="440.7,392.5 437.6,390.9 436,392.5 439.1,394 440.7,394 442.2,395.6 	"/>
	
		<rect x="434.5" y="319.6" transform="matrix(-1 -8.996016e-11 8.996016e-11 -1 873.6329 712.114)" class="st0" width="4.7" height="72.9"/>
	<path class="st0" d="M24.6,237.9"/>
	<path class="st0" d="M26.8,247.2H24c-1.4,0-2.5-1.1-2.5-2.5v-27.6c0-1.4,1.1-2.5,2.5-2.5h2.8c1.4,0,2.5,1.1,2.5,2.5v27.6
		C29.3,246.1,28.1,247.2,26.8,247.2z"/>
	<path class="st0" d="M42.8,247.2H25.1c-1.1,0-2-0.9-2-2V243c0-1.1,0.9-2,2-2h17.7c1.1,0,2,0.9,2,2v2.2
		C44.8,246.3,43.9,247.2,42.8,247.2z"/>
	<path class="st0" d="M28.7,227h7.4c1.4,0,2.5,1.1,2.5,2.5v2.8c0,1.4-1.1,2.5-2.5,2.5h-7.4c-1.4,0-2.5-1.1-2.5-2.5v-2.8
		C26.2,228.2,27.3,227,28.7,227z"/>
	<path class="st0" d="M53.6,230.1h-2.2c-1.1,0-2-0.9-2-2v-14.6c0-1.1,0.9-2,2-2h2.2c1.1,0,2,0.9,2,2v14.6
		C55.6,229.2,54.7,230.1,53.6,230.1z"/>
	<path class="st0" d="M51.5,230.1h-5.8c-0.5,0-1-0.4-1-1V228c0-0.6,0.4-1,1-1h5.8c0.5,0,1,0.4,1,1v1.1
		C52.5,229.7,52.1,230.1,51.5,230.1z"/>
	<path class="st0" d="M55.7,233.2H54c-0.8,0-1.5-0.7-1.5-1.5v-23.4c0-0.8,0.7-1.5,1.5-1.5h1.7c0.8,0,1.5,0.7,1.5,1.5v23.4
		C57.2,232.6,56.5,233.2,55.7,233.2z"/>
	<path class="st0" d="M55.7,211.5H54c-0.8,0-1.5-0.7-1.5-1.5v-21.8c0-0.8,0.7-1.5,1.5-1.5h1.7c0.8,0,1.5,0.7,1.5,1.5V210
		C57.2,210.9,56.5,211.5,55.7,211.5z"/>
	<path class="st0" d="M475.6,247.3h-1.3c-1.8,0.3-3.2,1.9-3.2,3.8v29.5c0,2.1,1.7,3.9,3.9,3.9c2.1,0,3.9-1.7,3.9-3.9v-29.5
		C478.8,249.2,477.4,247.6,475.6,247.3z"/>
	<path class="st0" d="M476.3,247.3h-16.8c-1.4,0.3-2.5,1.5-2.5,3c0,1.7,1.4,3.1,3.1,3.1h15.5c1.7,0,3.1-1.4,3.1-3.1
		C478.8,248.8,477.7,247.6,476.3,247.3z"/>
	<path class="st0" d="M445.2,261.1h2.2c1.1,0,2,0.9,2,2v30.1c0,1.1-0.9,2-2,2h-2.2c-1.1,0-2-0.9-2-2v-30.1
		C443.2,262,444.1,261.1,445.2,261.1z"/>
	<path class="st0" d="M470.2,272h-23c-2.2,0-4-1.8-4-4v-4.4c0-2.2,1.8-4,4-4h23c2.2,0,4,1.8,4,4v4.4
		C474.2,270.2,472.4,272,470.2,272z"/>
	<path class="st0" d="M443.1,261.1h1.7c0.8,0,1.5,0.7,1.5,1.5v49.7c0,0.8-0.7,1.5-1.5,1.5h-1.7c-0.8,0-1.5-0.7-1.5-1.5v-49.7
		C441.6,261.8,442.3,261.1,443.1,261.1z"/>
	<path class="st0" d="M476.8,313.9h-2.2c-1.1,0-2-0.9-2-2v-41c0-1.1,0.9-2,2-2h2.2c1.1,0,2,0.9,2,2v41
		C478.8,313,477.9,313.9,476.8,313.9z"/>
</g>
</svg>
